# xmcd
#
# Track frame offsets: 
#        150
#        14745
#        30640
#        43871
#        68961
#        84039
#        101674
#        128809
#        140143
#        158745
#        173156
#        194300
#        206074
#        221147
#        236686
#
# Disc length: 3332 seconds
#
# Revision: 0
# Processed by: cddbd v1.5.2PL0 Copyright (c) Steve Scherf et al.
# Submitted via: ExactAudioCopy v1.3
#
DISCID=db0d020f
DTITLE=Dave Steffen Band - Give Me A Thrill
DYEAR=2000
DGENRE=Rockin' Blues
TTITLE0=Hot Mover
TTITLE1=Gotta Love For You Baby
TTITLE2=Give Me A Thrill
TTITLE3=Rainy Blues
TTITLE4=Mood For You
TTITLE5=Whisky Train
TTITLE6=Tell Me
TTITLE7=Boogie Fever
TTITLE8=Satisified
TTITLE9=Do What You Gotta Do
TTITLE10=Let Love Light The Fire
TTITLE11=Froggie When A Countin'
TTITLE12=The Boose Has A Bigger Bite
TTITLE13=Ramblin'
TTITLE14=All Night Long
EXTD=
EXTT0=
EXTT1=
EXTT2=
EXTT3=
EXTT4=
EXTT5=
EXTT6=
EXTT7=
EXTT8=
EXTT9=
EXTT10=
EXTT11=
EXTT12=
EXTT13=
EXTT14=
PLAYORDER=
